<?xml version="1.0" encoding="utf-8"?>
<!-- Generator: Adobe Illustrator 16.0.0, SVG Export Plug-In . SVG Version: 6.00 Build 0)  -->
<!DOCTYPE svg PUBLIC "-//W3C//DTD SVG 1.1//EN" "http://www.w3.org/Graphics/SVG/1.1/DTD/svg11.dtd">
<svg version="1.1" id="Layer_17" xmlns="http://www.w3.org/2000/svg" xmlns:xlink="http://www.w3.org/1999/xlink" x="0px" y="0px"
	 width="50px" height="50px" viewBox="0 0 50 50" enable-background="new 0 0 50 50" xml:space="preserve">
<g>
	<path fill="none" d="M24.664,2.919c-11.991,0-21.744,9.754-21.744,21.745c0,11.988,9.753,21.743,21.744,21.743
		c11.988,0,21.744-9.755,21.744-21.743C46.408,12.674,36.651,2.919,24.664,2.919z M21.136,32.74l-6.951-6.748l2.249-2.454
		l4.703,4.703l11.553-11.655l2.454,2.249L21.136,32.74z"/>
	<polygon fill="#007AFF" points="21.136,28.242 16.433,23.539 14.185,25.993 21.136,32.74 35.142,18.836 32.688,16.587 	"/>
	<path fill="#007AFF" d="M24.664,0.746c-13.21,0-23.918,10.708-23.918,23.918c0,13.209,10.708,23.917,23.918,23.917
		c13.209,0,23.917-10.708,23.917-23.917C48.581,11.454,37.873,0.746,24.664,0.746z M24.664,46.407
		c-11.991,0-21.744-9.755-21.744-21.743c0-11.99,9.753-21.745,21.744-21.745c11.988,0,21.744,9.754,21.744,21.745
		C46.408,36.652,36.651,46.407,24.664,46.407z"/>
</g>
</svg>
