<?xml version="1.0" encoding="utf-8"?>
<!-- Generator: Adobe Illustrator 21.1.0, SVG Export Plug-In . SVG Version: 6.00 Build 0)  -->
<svg version="1.1" id="Слой_1" xmlns="http://www.w3.org/2000/svg" xmlns:xlink="http://www.w3.org/1999/xlink" x="0px" y="0px"
	 viewBox="0 0 135 25" enable-background="new 0 0 135 25" xml:space="preserve">
<path fill="#67C1BF" d="M80.5,19c0.5,0.1,1,0.2,1.5,0.2c1,0,2-0.2,2.9-0.6c0.9-0.4,1.7-1.1,2.3-1.8c0.3-0.4,0.5-1,0.5-1.5v-2.3
	c0-0.1,0-0.3-0.1-0.4c-0.1-0.1-0.1-0.2-0.2-0.3c-0.1-0.1-0.2-0.2-0.3-0.2c-0.1-0.1-0.3-0.1-0.4-0.1h-3.9c-0.2,0-0.5,0.1-0.7,0.2
	c-0.2,0.1-0.3,0.4-0.4,0.6c0,0.1,0,0.3,0,0.4c0,0.1,0.1,0.3,0.2,0.4c0.1,0.1,0.2,0.2,0.3,0.3c0.1,0.1,0.3,0.1,0.4,0.1h2.9v1.2
	c0,0.1,0,0.2-0.1,0.3c-1,1.3-2.9,2-4.7,1.6c-0.9-0.2-1.7-0.7-2.3-1.3c-0.6-0.7-1-1.5-1.2-2.4c-0.2-0.9-0.1-1.8,0.3-2.6
	c0.3-0.8,0.9-1.5,1.7-2.1C79.9,8.3,80.4,8.1,81,8c0.8-0.2,1.7-0.1,2.5,0.2c0.8,0.3,1.5,0.8,2.1,1.5c0.1,0.2,0.4,0.3,0.6,0.4
	c0.2,0.1,0.5,0,0.7-0.1c0.1-0.1,0.3-0.2,0.3-0.3c0.1-0.1,0.2-0.3,0.2-0.4c0-0.1,0-0.3,0-0.4c0-0.1-0.1-0.3-0.2-0.4
	c-0.7-0.8-1.5-1.5-2.5-2c-1-0.4-2-0.6-3.1-0.6c-1.1,0.1-2.1,0.4-3,0.9C77.7,7.3,77,8,76.4,8.9c-0.6,0.9-0.9,1.9-1,3
	C75.3,13,75.4,14,75.8,15c0.4,1,1,1.9,1.8,2.6C78.5,18.3,79.4,18.8,80.5,19L80.5,19z"/>
<path fill="#67C1BF" d="M89.4,12.9V18c0,0.2,0.1,0.5,0.2,0.7c0.2,0.2,0.4,0.3,0.6,0.4c0.1,0,0.3,0,0.4,0s0.3-0.1,0.4-0.2
	c0.1-0.1,0.2-0.2,0.3-0.3c0.1-0.1,0.1-0.3,0.1-0.4v-4.1H94l3.4,4.7c0.1,0.1,0.2,0.2,0.3,0.3C97.9,19,98,19,98.2,19
	c0.1,0,0.3,0,0.4-0.1c0.1,0,0.3-0.1,0.4-0.2c0.2-0.2,0.3-0.4,0.3-0.6c0-0.2-0.1-0.5-0.2-0.7l-2.9-4c0.7-0.4,1.3-0.9,1.7-1.6
	c0.4-0.7,0.5-1.5,0.4-2.3C98,7.6,96.1,6,94.1,6h-3.7c-0.1,0-0.3,0-0.4,0.1c-0.1,0-0.2,0.1-0.3,0.2c-0.1,0.1-0.2,0.2-0.2,0.3
	c-0.1,0.1-0.1,0.3-0.1,0.4L89.4,12.9L89.4,12.9z M96.2,9.9c0,0.5-0.2,1-0.5,1.3c-0.3,0.4-0.8,0.6-1.3,0.6c-0.1,0-0.1,0-0.2,0h-2.8V8
	h2.8c0.5,0,1,0.2,1.4,0.6C96,8.9,96.2,9.4,96.2,9.9L96.2,9.9z"/>
<path fill="#67C1BF" d="M126.2,12.9C126.2,12.9,126.2,12.9,126.2,12.9V18c0,0.2,0.1,0.5,0.2,0.7c0.2,0.2,0.4,0.3,0.6,0.4
	c0.1,0,0.3,0,0.4,0c0.1,0,0.3-0.1,0.4-0.2c0.1-0.1,0.2-0.2,0.3-0.3c0.1-0.1,0.1-0.3,0.1-0.4v-4.1h2.8c0.1,0,0.3,0,0.4,0
	c1-0.1,2-0.6,2.7-1.4c0.7-0.8,1-1.8,1-2.8c-0.1-2.1-2.1-3.7-4.2-3.7h-3.7c-0.1,0-0.3,0-0.4,0.1c-0.1,0-0.2,0.1-0.3,0.2
	c-0.1,0.1-0.2,0.2-0.2,0.3c-0.1,0.1-0.1,0.3-0.1,0.4c0,0,0,0,0,0L126.2,12.9C126.2,12.9,126.2,12.9,126.2,12.9z M133,9.9
	c0,0.5-0.2,1-0.5,1.3c-0.3,0.4-0.8,0.6-1.3,0.6c-0.1,0-0.1,0-0.2,0h-2.8V8h2.8c0.3,0,0.5,0,0.8,0.1c0.2,0.1,0.5,0.2,0.7,0.4
	c0.2,0.2,0.3,0.4,0.4,0.6C132.9,9.4,133,9.7,133,9.9L133,9.9z"/>
<path fill="#67C1BF" d="M105.3,19.2c1.4,0.1,2.8-0.1,4-0.8c1.2-0.7,2.2-1.7,2.8-2.9c0.6-1.2,0.8-2.6,0.6-4c-0.2-1.4-0.9-2.6-1.9-3.6
	c-1-1-2.2-1.6-3.6-1.9c-1.4-0.2-2.8,0-4,0.5c-1.2,0.6-2.3,1.6-3,2.8c-0.7,1.2-1,2.6-0.8,4c0.2,1.5,0.8,3,1.9,4
	C102.4,18.3,103.8,19,105.3,19.2z M105.4,7.9c1-0.1,1.9,0.1,2.8,0.5c0.9,0.5,1.5,1.2,2,2c0.4,0.9,0.6,1.9,0.4,2.8
	c-0.2,1-0.6,1.8-1.3,2.5c-0.7,0.7-1.6,1.1-2.5,1.3c-1,0.2-1.9,0-2.8-0.4c-0.9-0.4-1.6-1.1-2-2c-0.5-0.9-0.6-1.8-0.5-2.8
	c0.1-1,0.6-2,1.3-2.7C103.5,8.5,104.4,8.1,105.4,7.9L105.4,7.9z"/>
<path fill="#67C1BF" d="M119.7,19.2c2.6-0.2,4.7-2.7,4.7-5.3V6.9c0-0.2-0.1-0.5-0.2-0.7c-0.2-0.2-0.4-0.3-0.6-0.4
	c-0.1,0-0.3,0-0.4,0c-0.1,0-0.3,0.1-0.4,0.2c-0.1,0.1-0.2,0.2-0.3,0.3c-0.1,0.1-0.1,0.3-0.1,0.4v7c0,0.8-0.3,1.5-0.7,2.1
	c-0.5,0.6-1.2,1-1.9,1.1c-0.5,0.1-0.9,0.1-1.4-0.1c-0.5-0.1-0.9-0.3-1.2-0.6c-0.4-0.3-0.6-0.7-0.8-1.1c-0.2-0.4-0.3-0.9-0.3-1.4V6.9
	c0-0.2-0.1-0.5-0.2-0.7c-0.2-0.2-0.4-0.3-0.6-0.4c-0.1,0-0.3,0-0.4,0c-0.1,0-0.3,0.1-0.4,0.2c-0.1,0.1-0.2,0.2-0.3,0.3
	c-0.1,0.1-0.1,0.3-0.1,0.4V14c0,0.7,0.2,1.4,0.5,2.1c0.3,0.7,0.7,1.3,1.3,1.7c0.5,0.5,1.2,0.9,1.9,1.1S119,19.2,119.7,19.2z"/>
<path fill="#67C1BF" d="M29.4,7.1v10.8c0,1.6,2.1,1.7,2.1-0.1v-7.7l2.5,3.2c0.6,0.9,1.8,2.5,2.5,3.3c0.4,0.4,0.6,0.9,1,1.3
	c0.4,0.4,0.6,1,1.2,1.1c0.1,0,0.3,0,0.5,0c0.1,0,0.3-0.1,0.4-0.2c0.1-0.1,0.2-0.2,0.3-0.4c0.1-0.1,0.1-0.3,0.1-0.4V7.1
	c0-0.6-0.4-1.1-0.9-1.1c-1.2,0-1.1,0.8-1.1,1.5v7.4c-0.2-0.2-0.3-0.4-0.4-0.6l-2.2-2.9c-0.3-0.4-0.6-0.7-0.9-1.1
	c-0.1-0.2-0.3-0.4-0.4-0.6c-0.7-0.9-2-2.7-2.6-3.4C31,6.2,30.8,6.1,30.6,6c-0.2-0.1-0.4,0-0.6,0c-0.2,0.1-0.4,0.2-0.5,0.4
	C29.4,6.6,29.3,6.9,29.4,7.1z"/>
<path fill="#67C1BF" d="M48,15.5c0,1-1,1.7-2,1.7c-0.8,0-1.5-0.2-2.1-0.6c-0.9-0.6-0.8-1.1-1.6-1.1c-0.7,0-1.2,0.9-0.6,1.6
	c0.3,0.4,0.6,0.7,1,0.9c0.7,0.5,1.9,1,2.7,1c0.2,0,0.3,0,0.4,0c0.1,0,0.3,0,0.4,0c2.1-0.1,3.9-1.4,3.9-3.7c0-2.7-2.7-3.4-4.6-4.3
	c-0.3-0.2-0.6-0.3-0.9-0.6c-0.6-0.5-0.6-0.7-0.6-1.3c0-0.8,0.9-1.3,1.8-1.3c0.6,0,1.2,0.2,1.7,0.5l0.4,0.3c0.1,0.1,0.1,0,0.1,0.1
	c0.3,0.3,0.3,0.4,0.8,0.4c0.5,0,0.9-0.4,0.9-1c0-0.6-0.9-1.2-1.3-1.5c-1.8-1.1-4.8-0.9-6,1c-0.7,1.1-0.7,2.6,0.1,3.6
	c0.6,0.7,1.3,1.2,2.1,1.5c0.8,0.4,1.8,0.8,2.5,1.2C47.5,14.3,48,14.7,48,15.5z"/>
<path fill="#67C1BF" d="M61.8,9.4c0,0.6,0.2,1.2,0.5,1.7c0.1,0.1,0.2,0.3,0.3,0.4c0.5,0.5,1.1,0.9,1.8,1.2c0.7,0.4,2.5,1.1,3,1.6
	c1.2,1.1,0.2,2.8-1.5,2.8c-1.3,0-2-0.4-2.8-1.2c-0.4-0.4-0.4-0.5-1-0.5c-0.8,0-1.1,1-0.6,1.6c0.1,0.2,0.3,0.3,0.5,0.5
	c1,0.9,2.3,1.4,3.7,1.5c0.2,0,0.2,0,0.4,0c3.7,0,5.2-4.2,2.6-6.2c-0.8-0.6-1.6-1-2.5-1.4c-0.7-0.3-2-0.9-2.3-1.6
	c-0.1-0.3-0.1-0.5,0-0.8c0-0.1,0.1-0.2,0.1-0.3c0.1-0.2,0.3-0.4,0.5-0.5c0.8-0.6,2.1-0.3,2.9,0.2c0.8,0.5,0.7,0.8,1.4,0.8
	c0.4,0,1.9-1-0.5-2.5c-1.4-0.9-3.4-0.9-4.9-0.1c-0.5,0.3-0.9,0.7-1.2,1.2C62,8.3,61.8,8.9,61.8,9.4z"/>
<path fill="#67C1BF" d="M50.6,6.9c0,0.7,0.2,0.8,0.5,1.3l3.5,5.6c0.2,0.2,0.1,0.5,0.1,1c0,0.9,0,2.4,0,3.2c0.1,1.4,2.1,1.5,2.1-0.1
	v-3.2c0-0.9,0-0.6,0.6-1.6c0.1-0.1,0.1-0.2,0.2-0.3l3.1-5c0.2-0.4,0.3-0.4,0.3-0.9c0-0.2-0.1-0.5-0.3-0.6C60.4,6.1,60.2,6,60,6
	c-0.9,0-1,0.4-1.5,1.2c-0.6,1-2.2,3.6-2.7,4.6c-0.2-0.1-2.4-4-2.8-4.6c-0.2-0.3-0.3-0.5-0.5-0.8C51.9,5.6,50.6,6,50.6,6.9z"/>
<path fill="#67C1BF" d="M15,10.8c-0.1,0.4-0.3,0.7-0.7,0.9c-0.3,0.2-0.7,0.4-1.1,0.4c-0.2,0-0.3,0-0.5-0.1c-0.2-0.1-0.4-0.2-0.6-0.3
	c-0.2-0.1-0.3-0.3-0.5-0.5l-4.1,1c0.1,0.9-0.1,1.7-0.5,2.5l2.4,2c0.1-0.1,0.2-0.1,0.3-0.2c0.6-0.3,1.2-0.3,1.8-0.1
	c0.6,0.2,1.1,0.6,1.4,1.1s0.4,1.2,0.2,1.8c-0.2,0.6-0.5,1.1-1.1,1.4c-0.4,0.2-0.7,0.3-1.1,0.3c-0.4,0-0.8-0.1-1.2-0.3
	S9,20.1,8.8,19.7c-0.2-0.4-0.3-0.8-0.3-1.2c0-0.4,0.1-0.8,0.4-1.2l-2.3-1.9c-0.5,0.5-1.1,0.9-1.8,1.1c-0.7,0.2-1.4,0.2-2.1,0
	c-0.5-0.1-0.9-0.4-1.3-0.7c-0.4-0.3-0.7-0.7-1-1.1c-0.5-0.9-0.6-1.9-0.3-2.9c0.3-1,0.9-1.8,1.8-2.3c0.9-0.5,1.9-0.6,2.9-0.3
	c1,0.3,1.8,0.9,2.3,1.8c0.1,0.2,0.2,0.3,0.2,0.5l4.1-1c0-0.2,0-0.4,0.1-0.6c0.1-0.2,0.2-0.4,0.3-0.6C12,9,12.2,8.8,12.4,8.7
	c0.3-0.2,0.7-0.3,1-0.2c0.4,0,0.7,0.2,1,0.4c0.3,0.2,0.5,0.5,0.6,0.9C15.1,10.1,15.1,10.4,15,10.8z"/>
<path fill="#F5DA34" d="M21.5,22.9c-0.3,0.4-0.6,0.8-1,1.1c-0.4,0.3-0.9,0.5-1.3,0.6c-0.3,0.1-0.6,0.1-0.9,0.1
	c-0.7,0-1.3-0.2-1.9-0.5c-0.6-0.3-1.1-0.8-1.4-1.4c-0.3-0.6-0.5-1.3-0.5-1.9c0-0.7,0.2-1.3,0.5-1.9c0.1-0.2,0.2-0.3,0.3-0.5l-3-3.1
	c-0.3,0.2-0.8,0.3-1.2,0.3c-0.4,0-0.8-0.2-1.1-0.5c-0.3-0.3-0.5-0.7-0.5-1.1c0-0.4,0-0.8,0.3-1.2c0.2-0.4,0.7-0.7,1.1-0.8
	c0.5-0.1,1,0,1.4,0.2c0.4,0.2,0.7,0.7,0.8,1.1c0.1,0.5,0,1-0.2,1.4l3,3.1c0.7-0.5,1.5-0.8,2.4-0.8l0.5-3c-0.1,0-0.2-0.1-0.3-0.2
	c-0.3-0.2-0.5-0.4-0.7-0.6c-0.2-0.3-0.3-0.5-0.4-0.8c-0.1-0.5-0.1-1,0.1-1.5c0.2-0.5,0.5-0.9,0.9-1.1s0.9-0.4,1.4-0.4
	c0.5,0,1,0.2,1.4,0.5c0.4,0.3,0.7,0.7,0.8,1.2c0.1,0.5,0.1,1,0,1.5c-0.2,0.5-0.5,0.9-0.9,1.2c-0.4,0.3-0.9,0.4-1.4,0.4h-0.1l-0.5,3
	c0.4,0.1,0.7,0.2,1.1,0.4c0.4,0.3,0.8,0.6,1.1,1c0.3,0.4,0.5,0.9,0.6,1.3c0.1,0.5,0.1,1,0.1,1.5C22,21.9,21.8,22.4,21.5,22.9z"/>
<path fill="#29414D" d="M21.9,4.2c0,1-0.4,2-1.1,2.7C20.1,7.6,19.1,8,18.1,8c-0.2,0-0.4,0-0.6,0l-1.1,4.1c0.4,0.2,0.7,0.5,0.8,1
	c0.2,0.4,0.2,0.9,0,1.3c-0.2,0.4-0.5,0.7-0.9,1c-0.4,0.2-0.8,0.3-1.3,0.1c-0.4-0.1-0.8-0.4-1-0.7c-0.2-0.4-0.4-0.8-0.3-1.2
	c0.1-0.4,0.3-0.8,0.6-1.1c0.3-0.3,0.8-0.4,1.2-0.4l1.1-4.1c-0.8-0.3-1.5-0.9-1.9-1.6l-2.9,1.1c0,0.1,0,0.2,0,0.4
	c0,0.6-0.2,1.2-0.6,1.6C11,9.6,10.4,9.9,9.8,10C9.3,10,8.7,9.9,8.2,9.6c-0.5-0.3-0.8-0.8-1-1.4C7,7.6,7.1,7,7.4,6.5
	C7.6,6,8.1,5.6,8.6,5.3c0.5-0.2,1.1-0.2,1.7,0c0.6,0.2,1,0.6,1.3,1.1l2.8-1.1c-0.2-0.5-0.2-1.1-0.1-1.6c0.1-0.5,0.3-1.1,0.5-1.5
	C15.1,1.7,15.5,1.3,16,1c0.5-0.3,1-0.5,1.5-0.6c0.5-0.1,1.1,0,1.6,0.1c0.5,0.2,1,0.4,1.4,0.8s0.8,0.8,1,1.3
	C21.8,3.1,21.9,3.6,21.9,4.2L21.9,4.2z"/>
</svg>
