<?xml version="1.0" encoding="utf-8"?>
<!-- Generator: Adobe Illustrator 16.0.0, SVG Export Plug-In . SVG Version: 6.00 Build 0)  -->
<!DOCTYPE svg PUBLIC "-//W3C//DTD SVG 1.1//EN" "http://www.w3.org/Graphics/SVG/1.1/DTD/svg11.dtd">
<svg version="1.1" id="Layer_1" xmlns="http://www.w3.org/2000/svg" xmlns:xlink="http://www.w3.org/1999/xlink" x="0px" y="0px"
	 width="50px" height="50px" viewBox="0 0 50 50" enable-background="new 0 0 50 50" xml:space="preserve">
<g id="Layer_16">
	<g>
		<path fill="none" d="M24.663,3.151c-11.862,0-21.512,9.65-21.512,21.512c0,11.86,9.65,21.512,21.512,21.512
			c11.86,0,21.512-9.649,21.512-21.512S36.523,3.151,24.663,3.151z M33.423,31.137l-2.286,2.287l-6.476-6.474l-6.472,6.474
			l-2.287-2.287l6.474-6.474l-6.474-6.472l2.287-2.287l6.472,6.475l6.476-6.475l2.286,2.287l-6.474,6.472L33.423,31.137z"/>
		<path fill="#FE3F35" d="M24.663,1C11.594,1,1,11.595,1,24.664c0,13.068,10.594,23.663,23.663,23.663
			c13.069,0,23.664-10.595,23.664-23.663C48.327,11.595,37.732,1,24.663,1z M24.663,46.175c-11.862,0-21.512-9.649-21.512-21.512
			s9.65-21.512,21.512-21.512c11.86,0,21.512,9.65,21.512,21.512S36.523,46.175,24.663,46.175z"/>
		<polygon fill="#FE3F35" points="31.137,15.903 24.662,22.378 18.19,15.903 15.903,18.19 22.377,24.663 15.903,31.137 
			18.19,33.424 24.662,26.95 31.137,33.424 33.423,31.137 26.949,24.663 33.423,18.19 		"/>
	</g>
</g>
</svg>
